<svg xmlns="http://www.w3.org/2000/svg" version="1.1" xmlns:xlink="http://www.w3.org/1999/xlink" xmlns:svgjs="http://svgjs.dev/svgjs" width="100%" height="100%" viewBox="0 0 1000 600"><rect width="1000" height="600" x="0" y="0" fill="#234e70"/><g><circle r="166.66666666666666" cx="340.6038157145182" cy="362.8259724849627" fill="#fbf8be" transform="matrix(0.7186507015617896,0,0,0.7186507015617895,0,39.254858108652186)"/><path d="M211.37005510312173 437.82599261296076L190.40901614208278 437.82599261296076Q191.49992523299187 431.67014845711657 191.69473042779705 420.020797807766Q191.9284966615633 408.3714471584153 191.9284966615633 393.1766419636101L191.9284966615633 393.1766419636101L191.9284966615633 332.63118741815555Q191.9284966615633 317.4363822233504 191.69473042779705 305.70910949607764Q191.49992523299187 294.020797807766 190.40901614208278 287.82599261296076L190.40901614208278 287.82599261296076L211.37005510312173 287.82599261296076L211.37005510312173 352.07274585971396L285.3181070511737 352.07274585971396L285.3181070511737 287.82599261296076L306.4349901680568 287.82599261296076Q305.30512003818666 294.020797807766 305.11031484338145 305.70910949607764Q304.9155096485763 317.4363822233504 304.9155096485763 332.63118741815555L304.9155096485763 332.63118741815555L304.9155096485763 393.1766419636101Q304.9155096485763 408.3714471584153 305.11031484338145 420.020797807766Q305.30512003818666 431.67014845711657 306.4349901680568 437.82599261296076L306.4349901680568 437.82599261296076L285.3181070511737 437.82599261296076L285.3181070511737 368.51430430127243L211.37005510312173 368.51430430127243L211.37005510312173 437.82599261296076ZM426.5518732849399 437.82599261296076L406.564860297927 437.82599261296076L354.62979536286196 287.82599261296076L372.1622628953295 287.82599261296076L416.26615899922564 416.8649536519218L461.0713538044205 287.82599261296076L478.1752499083166 287.82599261296076L426.5518732849399 437.82599261296076ZM360.78563951870615 437.82599261296076L341.88953562260224 437.82599261296076Q342.4349901680568 433.42339521036337 343.1362888693555 423.2545640415322Q343.7986265316932 413.04677183373997 344.49992523299187 399.2545640415322Q345.20122393429057 385.5013172882854 345.78563951870615 370.30651209348025Q346.40901614208275 355.11170689867504 347.0323927654594 340.42339521036337Q347.655769388836 325.7740445610127 348.04537977844643 313.92988871685685Q348.4739512070178 302.085732872701 348.7466784797451 294.95586274283085Q349.0194057524724 287.82599261296076 349.0194057524724 287.82599261296076L349.0194057524724 287.82599261296076L366.98044471351136 287.82599261296076L364.0973278303944 314.12469391166206L360.78563951870615 437.82599261296076ZM490.7986265316931 437.82599261296076L471.7466784797451 437.82599261296076L468.8635615966282 314.12469391166206L465.59083432390094 287.82599261296076L483.6687564018231 287.82599261296076Q483.6687564018231 287.82599261296076 483.8635615966282 294.95586274283085Q484.0583667914334 302.085732872701 484.48693822000484 313.92988871685685Q484.87654860961527 325.7740445610127 485.4999252329918 340.42339521036337Q486.12330185636847 355.11170689867504 486.7466784797451 370.30651209348025Q487.3700551031217 385.5013172882854 488.03239276545935 399.2545640415322Q488.73369146675816 413.04677183373997 489.3960291290957 423.2545640415322Q490.0973278303944 433.42339521036337 490.7986265316931 437.82599261296076L490.7986265316931 437.82599261296076Z " fill="#234e70" transform="matrix(0.7186507015617896,0,0,0.7186507015617895,0,39.254858108652186)"/><path d="M605.1496077125955 401.89412631631325L590.6038253286998 401.89412631631325Q591.3608548951479 397.6223166199276 591.4960387462994 389.53832232107106Q591.6582593676811 381.45432802221455 591.6582593676811 370.90998763240174L591.6582593676811 370.90998763240174L591.6582593676811 328.89484669453213Q591.6582593676811 318.3505063047193 591.4960387462994 310.2124384654022Q591.3608548951479 302.10140739631544 590.6038253286998 297.80256092969944L590.6038253286998 297.80256092969944L605.1496077125955 297.80256092969944L605.1496077125955 342.3861950394465L656.4653976096846 342.3861950394465L656.4653976096846 297.80256092969944L671.1193270745014 297.80256092969944Q670.3352607378231 302.10140739631544 670.2000768866716 310.2124384654022Q670.0648930355201 318.3505063047193 670.0648930355201 328.89484669453213L670.0648930355201 328.89484669453213L670.0648930355201 370.90998763240174Q670.0648930355201 381.45432802221455 670.2000768866716 389.53832232107106Q670.3352607378231 397.6223166199276 671.1193270745014 401.89412631631325L671.1193270745014 401.89412631631325L656.4653976096846 401.89412631631325L656.4653976096846 353.7957120766286L605.1496077125955 353.7957120766286L605.1496077125955 401.89412631631325ZM712.4585487566137 401.89412631631325L697.8316560620273 401.89412631631325Q697.8316560620273 401.89412631631325 697.8316560620273 398.0549049436122Q697.8316560620273 394.18864680068083 697.8316560620273 388.2135205797869Q697.8316560620273 382.2113575886627 697.8316560620273 375.7495695036235Q697.8316560620273 369.28778141858436 697.8316560620273 364.15079507482943L697.8316560620273 364.15079507482943Q697.8316560620273 353.71460176593774 697.6694354406455 344.2517321853365Q697.534251589494 334.7888626047352 696.777222023046 329.1922511670653L696.777222023046 329.1922511670653L711.0255999344084 329.1922511670653L711.0255999344084 368.0440899879911Q711.0255999344084 372.6133041569099 711.1607837855598 379.1291657824097Q711.3230044069415 385.6450274079094 711.6474456497051 391.863484560876Q711.9718868924685 398.0819417138425 712.4585487566137 401.89412631631325L712.4585487566137 401.89412631631325ZM704.2934441470665 315.67386605192064L704.2934441470665 315.67386605192064Q700.2920021529836 315.67386605192064 697.8316560620273 312.8350051777403Q695.3442732008406 309.96910753332963 695.3442732008406 306.075812620168L695.3442732008406 306.075812620168Q695.3442732008406 302.10140739631544 697.8316560620273 299.2355097519048Q700.2920021529836 296.3966488777244 704.2934441470665 296.3966488777244L704.2934441470665 296.3966488777244Q708.267849370919 296.3966488777244 710.890416083257 299.2355097519048Q713.512982795595 302.10140739631544 713.512982795595 306.075812620168L713.512982795595 306.075812620168Q713.512982795595 309.96910753332963 710.890416083257 312.8350051777403Q708.267849370919 315.67386605192064 704.2934441470665 315.67386605192064ZM762.6387943040307 437.8259939523678L762.6387943040307 437.8259939523678Q754.3655426135622 437.8259939523678 746.0652541528633 435.5008317125629Q737.7379289219342 433.175669472758 732.1683542544946 428.36312437176656Q726.6258163572853 423.5776160410053 726.6258163572853 416.1425042276757L726.6258163572853 416.1425042276757Q726.6258163572853 404.27336209657875 745.1460039650335 396.5678825809463L745.1460039650335 396.5678825809463Q745.1460039650335 396.5678825809463 748.2011590010562 397.13565475578235Q751.2292772668486 397.70342693061843 754.338505843332 398.56860357798774Q757.4206976495849 399.433780225357 757.6099550411969 400.461177494108L757.6099550411969 400.461177494108Q749.8233652148737 403.1378177469066 746.0111806124028 405.5981638378629Q742.198996009932 408.08554669904953 741.0093781197993 410.30256185793326Q739.8197602296665 412.5466137870473 739.8197602296665 414.7365921757007L739.8197602296665 414.7365921757007Q739.8197602296665 419.0084018720864 745.7137761398697 423.2802115684721Q751.6077920500727 427.55202126485784 763.693228343012 427.55202126485784L763.693228343012 427.55202126485784Q770.1550164280511 427.55202126485784 775.5353337038788 425.416116416665Q780.888614209476 423.2802115684721 784.0789530966501 420.14394622175854Q787.2692919838242 417.007680875045 787.2692919838242 413.9525258390223L787.2692919838242 413.9525258390223Q787.2692919838242 409.68071614263664 782.2134159507602 406.73370818753506Q777.1845766879263 403.78670023243353 763.314713559788 402.1915307888465L763.314713559788 402.1915307888465Q748.2822693117471 400.5693245750291 742.8208417252287 396.1082574870314Q737.3594141387102 391.62015362880334 737.3594141387102 386.59131436596954L737.3594141387102 386.59131436596954Q737.3594141387102 383.34690193833484 740.1171647021997 379.6158276465549Q742.8749152656893 375.8577165845447 748.0119016094442 373.7488485065821L748.0119016094442 373.7488485065821L760.1784482130744 376.99326093421683Q753.9870278303382 378.8047245396462 751.5266817393818 381.0217396985299Q749.0392988781952 383.265791627644 749.0392988781952 385.1583655437642L749.0392988781952 385.1583655437642Q749.0392988781952 387.1590865408056 753.7166601280353 389.2409178485379Q758.366984607645 391.34978592650043 772.2368477357835 393.05310245100867L772.2368477357835 393.05310245100867Q788.1074318609633 394.86456605643804 794.2447787032389 400.001552400193Q800.3821255455147 405.138538743948 800.3821255455147 413.3036433534954L800.3821255455147 413.3036433534954Q800.3821255455147 420.90097578820667 794.5421831757722 426.4164769151857Q788.6752040357993 431.9319780421647 779.9964007918765 434.8789859972663Q771.2905607777233 437.8259939523678 762.6387943040307 437.8259939523678ZM761.2058454818253 378.8047245396462L761.2058454818253 378.8047245396462Q753.1488879531992 378.8047245396462 746.6870998681601 375.47920180132064Q740.1982750128906 372.153679062995 736.4672007211107 366.3948470039434Q732.7090896591004 360.63601494489177 732.7090896591004 353.4171972934045L732.7090896591004 353.4171972934045Q732.7090896591004 346.0902325609961 736.4672007211107 340.3043637317142Q740.1982750128906 334.491458132202 746.6870998681601 331.1388986236461Q753.1488879531992 327.75930234486 761.2058454818253 327.75930234486L761.2058454818253 327.75930234486Q769.2898397806819 327.75930234486 775.751627865721 331.1388986236461Q782.2134159507602 334.491458132202 785.9715270127705 340.3043637317142Q789.7296380747806 346.0902325609961 789.7296380747806 353.4171972934045L789.7296380747806 353.4171972934045Q789.7296380747806 360.63601494489177 785.9715270127705 366.3948470039434Q782.2134159507602 372.153679062995 775.751627865721 375.47920180132064Q769.2898397806819 378.8047245396462 761.2058454818253 378.8047245396462ZM761.2058454818253 368.82815632466946L761.2058454818253 368.82815632466946Q768.3435528226217 368.82815632466946 772.9668405320012 364.44819954736255Q777.5630914711504 360.06824277005575 777.5630914711504 353.4171972934045L777.5630914711504 353.4171972934045Q777.5630914711504 346.84726212744425 772.9668405320012 342.49434212036766Q768.3435528226217 338.1143853430608 761.2058454818253 338.1143853430608L761.2058454818253 338.1143853430608Q754.0951749112593 338.1143853430608 749.4178136614192 342.49434212036766Q744.7674891818095 346.84726212744425 744.7674891818095 353.4171972934045L744.7674891818095 353.4171972934045Q744.7674891818095 360.06824277005575 749.4178136614192 364.44819954736255Q754.0951749112593 368.82815632466946 761.2058454818253 368.82815632466946ZM781.1860186820091 343.1432246058946L781.1860186820091 343.1432246058946L776.5086574321691 334.86997291542605Q781.2671289927001 331.84185464963366 787.701880307509 329.9763175037437Q794.1095948520875 328.137817128084 799.3276915065334 327.75930234486L799.3276915065334 327.75930234486L798.6788090210064 339.16881938204205Q794.7584773376144 339.2499296927329 790.4325941007681 340.1691798805628Q786.1337476341522 341.06139329816233 781.1860186820091 343.1432246058946ZM826.0400204940591 401.89412631631325L812.8190398514477 401.89412631631325Q812.8190398514477 401.89412631631325 812.8190398514477 397.0004709046309Q812.8190398514477 392.10681549294856 812.8190398514477 384.1580050452435Q812.8190398514477 376.2362313677687 812.8190398514477 366.8544720978583Q812.8190398514477 357.4997495981782 812.8190398514477 348.3883580305707Q812.8190398514477 339.2499296927329 812.8190398514477 332.0311120412457Q812.8190398514477 324.81229438975845 812.8190398514477 321.3786245705117L812.8190398514477 321.3786245705117Q812.8190398514477 309.8879972226388 812.6838560002963 301.1821572084856Q812.5486721491449 292.50335396456273 811.7916425826967 287.8259927147227L811.7916425826967 287.8259927147227L826.0400204940591 287.8259927147227Q826.0400204940591 287.8259927147227 826.0400204940591 291.5841037767329Q826.0400204940591 295.3422148387431 826.0400204940591 301.2903042894068Q826.0400204940591 307.2113569698401 826.0400204940591 314.024623067873Q826.0400204940591 320.8108523956756 826.0400204940591 327.0833830891027Q826.0400204940591 333.35591378252985 826.0400204940591 337.6277234789156Q826.0400204940591 341.9265699455316 826.0400204940591 342.76470982267057L826.0400204940591 342.76470982267057Q831.3662642294261 335.35663477957127 838.5039715702225 331.5444501771005Q845.6146421407886 327.75930234486 853.130864264809 327.75930234486L853.130864264809 327.75930234486Q864.5403813019911 327.75930234486 870.6236546038062 335.2214509284198Q876.7069279056213 342.6835995119797 876.7069279056213 357.41863928748734L876.7069279056213 357.41863928748734Q876.7069279056213 360.933419417425 876.7069279056213 366.4759573146343Q876.7069279056213 372.0455319820739 876.7069279056213 378.128805283889Q876.7069279056213 384.2120785857041 876.7069279056213 389.6194326317619Q876.7069279056213 395.0538234480501 876.7069279056213 398.4604564970665Q876.7069279056213 401.89412631631325 876.7069279056213 401.89412631631325L876.7069279056213 401.89412631631325L863.4859472630098 401.89412631631325Q863.4859472630098 401.89412631631325 863.4859472630098 397.2708386069338Q863.4859472630098 392.67458766778464 863.4859472630098 385.96946865067287Q863.4859472630098 379.26434963356115 863.4859472630098 372.85663508898256Q863.4859472630098 366.44892054440396 863.4859472630098 362.74488302285437L863.4859472630098 362.74488302285437Q863.4859472630098 349.3346449886308 859.9170935926116 344.8195043601725Q856.3752766924438 340.3043637317142 849.2375693516474 340.3043637317142L849.2375693516474 340.3043637317142Q844.1005830078924 340.3043637317142 839.396184987822 343.33248199750665Q834.6917869677517 346.3876370335293 831.1770068378141 351.03796151313907Q827.6622267078766 355.68828599274883 826.0400204940591 360.5549046342009L826.0400204940591 360.5549046342009L826.0400204940591 401.89412631631325ZM956.4654000849748 401.89412631631325L942.5685001866061 401.89412631631325L906.5555222398608 297.80256092969944L918.722068843491 297.80256092969944L949.3276927441784 387.34834393241766L980.3929417387808 297.80256092969944L992.2891206401081 297.80256092969944L956.4654000849748 401.89412631631325ZM910.8273319362464 401.89412631631325L897.7144983745561 401.89412631631325Q898.0930131577801 398.8389712802906 898.5796750219254 391.7823742501851Q899.0393001158403 384.69874044984925 899.5259619799855 375.1277237883269Q899.9855870739005 365.5837438970347 900.4181753975851 355.0394035072219Q900.8507637212697 344.4950631174091 901.2833520449543 334.30220074058997Q901.7159403686389 324.1363751340012 901.9863080709418 315.9171969839932Q902.283712543475 307.6980188339853 902.472969935087 302.7502898818424Q902.662227326699 297.80256092969944 902.662227326699 297.80256092969944L902.662227326699 297.80256092969944L915.099141632632 297.80256092969944L913.0984206355907 316.05238083514473L910.8273319362464 401.89412631631325ZM1001.0219974244916 401.89412631631325L987.8280535521104 401.89412631631325L985.827332555069 316.05238083514473L983.5292070854945 297.80256092969944L996.1013052425789 297.80256092969944Q996.1013052425789 297.80256092969944 996.2364890937304 302.7502898818424Q996.3716729448819 307.6980188339853 996.669077417415 315.9171969839932Q996.9394451197179 324.1363751340012 997.3720334434025 334.30220074058997Q997.8046217670872 344.4950631174091 998.2372100907718 355.0394035072219Q998.6427616442261 365.5837438970347 999.1294235083714 375.1277237883269Q999.6160853725165 384.69874044984925 1000.0757104664315 391.7823742501851Q1000.5623723305767 398.8389712802906 1001.0219974244916 401.89412631631325L1001.0219974244916 401.89412631631325ZM1042.3882558768341 401.89412631631325L1027.7343264120173 401.89412631631325Q1027.7343264120173 401.89412631631325 1027.7343264120173 398.0549049436122Q1027.7343264120173 394.18864680068083 1027.7343264120173 388.2135205797869Q1027.7343264120173 382.2113575886627 1027.7343264120173 375.7495695036235Q1027.7343264120173 369.28778141858436 1027.7343264120173 364.15079507482943L1027.7343264120173 364.15079507482943Q1027.7343264120173 353.71460176593774 1027.5991425608659 344.2517321853365Q1027.4639587097145 334.7888626047352 1026.7069291432665 329.1922511670653L1026.7069291432665 329.1922511670653L1040.955307054629 329.1922511670653L1040.955307054629 368.0440899879911Q1040.955307054629 372.6133041569099 1041.0904909057804 379.1291657824097Q1041.2256747569318 385.6450274079094 1041.5771527699258 391.863484560876Q1041.901594012689 398.0819417138425 1042.3882558768341 401.89412631631325L1042.3882558768341 401.89412631631325ZM1034.1961144970564 315.67386605192064L1034.1961144970564 315.67386605192064Q1030.221709273204 315.67386605192064 1027.7343264120173 312.8350051777403Q1025.2739803210611 309.96910753332963 1025.2739803210611 306.075812620168L1025.2739803210611 306.075812620168Q1025.2739803210611 302.10140739631544 1027.7343264120173 299.2355097519048Q1030.221709273204 296.3966488777244 1034.1961144970564 296.3966488777244L1034.1961144970564 296.3966488777244Q1038.1975564911395 296.3966488777244 1040.8201232034776 299.2355097519048Q1043.415653145585 302.10140739631544 1043.415653145585 306.075812620168L1043.415653145585 306.075812620168Q1043.415653145585 309.96910753332963 1040.8201232034776 312.8350051777403Q1038.1975564911395 315.67386605192064 1034.1961144970564 315.67386605192064ZM1078.6986382961127 401.89412631631325L1065.4776576535014 401.89412631631325Q1065.4776576535014 401.89412631631325 1065.4776576535014 397.13565475578235Q1065.4776576535014 392.37718319525146 1065.4776576535014 385.21243908422474Q1065.4776576535014 378.04769497319813 1065.4776576535014 370.66665670032916Q1065.4776576535014 363.31265519769045 1065.4776576535014 358.06752177301433L1065.4776576535014 358.06752177301433Q1065.4776576535014 347.63132846412265 1064.2880397633685 340.25029019125367Q1063.0984218732358 332.89628868861496 1061.8547304426424 329.1922511670653L1061.8547304426424 329.1922511670653L1074.69719630203 329.1922511670653Q1075.562372949399 331.4633398664096 1076.3464392860776 336.03255403532853Q1077.1575423929862 340.5747314340171 1077.5360571762103 343.1432246058946L1077.5360571762103 343.1432246058946Q1084.4033968147037 334.97811999634723 1091.3248099936577 331.35519278548844Q1098.2732599428423 327.75930234486 1105.7894820668628 327.75930234486L1105.7894820668628 327.75930234486Q1117.0908520231237 327.75930234486 1123.1741253249388 335.2214509284198Q1129.257398626754 342.6835995119797 1129.257398626754 357.41863928748734L1129.257398626754 357.41863928748734Q1129.257398626754 360.933419417425 1129.257398626754 366.4759573146343Q1129.257398626754 372.0455319820739 1129.257398626754 378.128805283889Q1129.257398626754 384.2120785857041 1129.257398626754 389.6194326317619Q1129.257398626754 395.0538234480501 1129.257398626754 398.4604564970665Q1129.257398626754 401.89412631631325 1129.257398626754 401.89412631631325L1129.257398626754 401.89412631631325L1116.0364179841422 401.89412631631325Q1116.0364179841422 401.89412631631325 1116.0364179841422 397.2708386069338Q1116.0364179841422 392.67458766778464 1116.0364179841422 385.96946865067287Q1116.0364179841422 379.26434963356115 1116.0364179841422 372.85663508898256Q1116.0364179841422 366.44892054440396 1116.0364179841422 362.74488302285437L1116.0364179841422 362.74488302285437Q1116.0364179841422 349.3346449886308 1112.5757113946652 344.8195043601725Q1109.1150048051882 340.3043637317142 1101.78804007278 340.3043637317142L1101.78804007278 340.3043637317142Q1096.6510537290249 340.3043637317142 1091.9466557089545 343.33248199750665Q1087.2422576888844 346.3876370335293 1083.7815510994071 351.03796151313907Q1080.2938077396998 355.68828599274883 1078.6986382961127 360.5549046342009L1078.6986382961127 360.5549046342009L1078.6986382961127 401.89412631631325ZM1174.7873196945611 403.59744284082154L1174.7873196945611 403.59744284082154Q1161.7555964435614 403.59744284082154 1154.0230801576988 394.18864680068083Q1146.2635271016059 384.7798507605401 1146.2635271016059 369.09852402697237L1146.2635271016059 369.09852402697237Q1146.2635271016059 356.4723523294272 1150.7786677300642 347.198740140438Q1155.2938083585223 337.92512795144876 1162.999287874155 332.84221514815437Q1170.7047673897873 327.75930234486 1180.1946737406188 327.75930234486L1180.1946737406188 327.75930234486Q1184.6827775988468 327.75930234486 1189.7927271723715 329.59780272051967Q1194.9297135161264 331.4633398664096 1199.0122658209002 333.8425756466751L1199.0122658209002 333.8425756466751L1199.0122658209002 313.8894392167216Q1199.0122658209002 305.3187830537198 1198.6878245781368 298.8029214282201Q1198.3633833353733 292.28705980272036 1197.3089492963918 287.8259927147227L1197.3089492963918 287.8259927147227L1212.2332464635115 287.8259927147227L1212.2332464635115 364.15079507482943Q1212.2332464635115 377.66918018997404 1213.7473055964078 386.7805717575815Q1215.2884014995343 395.91900009541934 1217.5594901988788 401.89412631631325L1217.5594901988788 401.89412631631325L1204.7170243394912 401.89412631631325Q1203.959994773043 400.0826627108839 1202.8785239638314 396.3786251893343Q1201.7700163843897 392.67458766778464 1200.8237294263295 388.78129275462294L1200.8237294263295 388.78129275462294Q1190.3604993472077 403.59744284082154 1174.7873196945611 403.59744284082154ZM1177.3558128664386 392.2960728845606L1177.3558128664386 392.2960728845606Q1181.7357696437452 392.2960728845606 1185.9535057996704 389.53832232107106Q1190.1712419555956 386.7805717575815 1193.658985315303 382.40061498027467Q1197.11969190478 378.04769497319813 1199.0122658209002 373.37033372335804L1199.0122658209002 373.37033372335804L1199.0122658209002 345.25209268385714Q1193.7941691664544 342.3861950394465 1189.6575433212201 341.16954037908346Q1185.5209174759857 339.92584894849017 1180.1946737406188 339.92584894849017L1180.1946737406188 339.92584894849017Q1172.1106794417624 339.92584894849017 1165.811111978105 347.09059305951683Q1159.4845077442171 354.28237394077377 1159.4845077442171 367.0166927192401L1159.4845077442171 367.0166927192401Q1159.4845077442171 379.3724967144823 1163.7563174406032 385.8342847995214Q1168.0281271369886 392.2960728845606 1177.3558128664386 392.2960728845606Z " fill="#fbf8be" transform="matrix(0.7186507015617896,0,0,0.7186507015617895,0,39.254858108652186)"/></g></svg>